# xmcd CD database file
#
# Track frame offsets:
#	150
#	13893
#	27034
#	40070
#	51923
#	63413
#	76285
#	89509
#	100207
#	113655
#	127688
#	139915
#	152848
#	165272
#	177935
#	188101
#	201070
#	214152
#	226207
#	233779
#	245254
#	258792
#	271578
#	283715
#	291227
#
# Disc length: 4052 seconds
#
# Revision: 0
# Processed by: cddbd v1.5.2PL0 Copyright (c) Steve Scherf et al.
# Submitted via: CDex 2.12
#
DISCID=4e0fd219
DTITLE=Golden Country - Golden Country CD 1
DYEAR=2016
DGENRE=Country
TTITLE0=Johnny Cash - Don't take your guns to town
TTITLE1=Hank Williams - Hey, good lookin'
TTITLE2=June Carter - Country girl
TTITLE3=Ernest Tubb - Walking the floor over you
TTITLE4=Bill Monroe - Orange blossom special
TTITLE5=Merle Travis - Sixteen Tons
TTITLE6=The Stanley Brothers - I am a man of constant sorrow
TTITLE7=Carl Smith - Don't just stand there
TTITLE8=Davis Sisters - I forgot more than you'll ever know
TTITLE9=Lefty Frizzell - Always late (with your kisses)
TTITLE10=Jimmy Martin and The Osborne Brothers - 20/20 vision
TTITLE11=Roy Acuff - Wabash Cannonball
TTITLE12=Jimmy Wakely - I love you so much it hurts
TTITLE13=George Jones - Aching breaking heart
TTITLE14=Loretta Lynn - The girl that I am now
TTITLE15=Marty Robbins - Devil woman
TTITLE16=The Sons of the Pioneers - Cool Water
TTITLE17=Rose Maddox - My rose of kentucky
TTITLE18=Reno and Smiley - Tennessee cut up breakdown
TTITLE19=Eddy Arnold - Bouquet of roses
TTITLE20=Patsy Cline - She's got you
TTITLE21=Gene Autry - South of the border
TTITLE22=Hank Snow - Golden Rocket
TTITLE23=Dolly Parton - Puppy love
TTITLE24=Willie Nelson - Crazy
EXTD=YEAR: 2016
EXTT0=
EXTT1=
EXTT2=
EXTT3=
EXTT4=
EXTT5=
EXTT6=
EXTT7=
EXTT8=
EXTT9=
EXTT10=
EXTT11=
EXTT12=
EXTT13=
EXTT14=
EXTT15=
EXTT16=
EXTT17=
EXTT18=
EXTT19=
EXTT20=
EXTT21=
EXTT22=
EXTT23=
EXTT24=
PLAYORDER=
